<svg width="24" height="24" viewBox="0 0 24 24" fill="none" xmlns="http://www.w3.org/2000/svg">
<g clip-path="url(#clip0_500_33654)">
<path d="M12 24C18.6274 24 24 18.6274 24 12C24 5.37258 18.6274 0 12 0C5.37258 0 0 5.37258 0 12C0 18.6274 5.37258 24 12 24Z" fill="#009393"/>
<path fill-rule="evenodd" clip-rule="evenodd" d="M12.0147 12.8578C14.0784 12.8578 15.8031 12.5089 16.2246 12.0427C15.8667 11.6473 14.5722 11.3359 12.9282 11.2507V12.2356C12.6339 12.2509 12.3279 12.2584 12.0144 12.2584C11.7009 12.2584 11.3949 12.2509 11.1 12.2356V11.2507C9.45657 11.3359 8.16147 11.6473 7.80357 12.0427C8.22567 12.5089 9.95067 12.8578 12.0144 12.8578H12.0147ZM15.6813 8.22185V9.57815H12.9282V10.5187C14.862 10.6192 16.3131 11.0326 16.3239 11.5273V12.5587C16.3131 13.0534 14.862 13.4659 12.9282 13.5667V15.8749H11.1003V13.5667C9.16647 13.4662 7.71597 13.0534 7.70517 12.5587V11.5273C7.71597 11.0326 9.16647 10.6192 11.1003 10.5187V9.57815H8.34717V8.22185H15.6816H15.6813ZM7.26447 6.06335H16.9293C17.1603 6.06335 17.373 6.18485 17.4882 6.38225L20.3037 11.2171C20.4495 11.4679 20.4063 11.7844 20.1981 11.9875L12.4479 19.5529C12.1965 19.798 11.7927 19.798 11.5419 19.5529L3.80127 11.9977C3.58857 11.7895 3.54837 11.464 3.70527 11.212L6.71517 6.36725C6.83247 6.17885 7.04067 6.06365 7.26477 6.06365L7.26447 6.06335Z" fill="white"/>
</g>
<defs>
<clipPath id="clip0_500_33654">
<rect width="24" height="24" fill="white"/>
</clipPath>
</defs>
</svg>
